<svg width="200" height="200" viewBox="0 0 200 200" fill="none" xmlns="http://www.w3.org/2000/svg">
  <rect width="200" height="200" rx="100" fill="white"/>
  <path d="M100 180C144.183 180 180 144.183 180 100C180 55.8172 144.183 20 100 20C55.8172 20 20 55.8172 20 100C20 144.183 55.8172 180 100 180Z" fill="white"/>
  <path d="M100 170C138.66 170 170 138.66 170 100C170 61.3401 138.66 30 100 30C61.3401 30 30 61.3401 30 100C30 138.66 61.3401 170 100 170Z" fill="#F8F9FA"/>
  <path d="M100 40V160" stroke="#1A73E8" stroke-width="12" stroke-linecap="round"/>
  <path d="M40 100H160" stroke="#1A73E8" stroke-width="12" stroke-linecap="round"/>
  <path d="M65 65L135 135" stroke="#34A853" stroke-width="8" stroke-linecap="round"/>
  <path d="M135 65L65 135" stroke="#34A853" stroke-width="8" stroke-linecap="round"/>
  <circle cx="100" cy="100" r="25" fill="#EA4335"/>
  <circle cx="100" cy="100" r="15" fill="white"/>
</svg>